<svg width="117" height="45" viewBox="0 0 117 45" fill="none" xmlns="http://www.w3.org/2000/svg">
<rect width="117" height="45" rx="22.5" fill="white"/>
<path fill-rule="evenodd" clip-rule="evenodd" d="M33 11C27.9333 11 24.7667 13.5091 23.5 18.5273C25.4 16.0182 27.6167 15.0773 30.15 15.7045C31.5954 16.0621 32.6284 17.1013 33.772 18.2506C35.6347 20.1233 37.7908 22.2909 42.5 22.2909C47.5667 22.2909 50.7333 19.7818 52 14.7636C50.1 17.2727 47.8833 18.2136 45.35 17.5864C43.9046 17.2288 42.8716 16.1896 41.728 15.0403C39.8653 13.1676 37.7092 11 33 11ZM23.5 22.2909C18.4333 22.2909 15.2667 24.8 14 29.8182C15.9 27.3091 18.1167 26.3682 20.65 26.9955C22.0954 27.3537 23.1284 28.3922 24.272 29.5415C26.1347 31.4142 28.2908 33.5818 33 33.5818C38.0667 33.5818 41.2333 31.0727 42.5 26.0545C40.6 28.5636 38.3833 29.5045 35.85 28.8773C34.4046 28.5197 33.3716 27.4805 32.228 26.3312C30.3653 24.4585 28.2092 22.2909 23.5 22.2909Z" fill="#38BDF8"/>
<path d="M71.4195 9.67241C72.4732 9.67241 73.4531 9.80939 74.3592 10.0833C75.2864 10.3362 76.0766 10.7261 76.7299 11.2529C77.4042 11.7586 77.931 12.3908 78.3103 13.1494C78.6897 13.908 78.8793 14.772 78.8793 15.7414C78.8793 16.9215 78.6054 18.091 78.0575 19.25C77.5096 20.409 76.7299 21.568 75.7184 22.727C74.728 23.8649 73.5268 25.0134 72.1149 26.1724C70.7031 27.3314 69.1331 28.5115 67.4052 29.7126H79.4167V33H62.727V29.9023C64.6446 28.4061 66.3515 27.0259 67.8477 25.7615C69.3649 24.4971 70.6504 23.3065 71.704 22.1897C72.7577 21.0517 73.5584 19.9875 74.1063 18.9971C74.6753 17.9856 74.9598 17.0057 74.9598 16.0575C74.9598 14.9406 74.6226 14.0766 73.9483 13.4655C73.295 12.8544 72.3994 12.5488 71.2615 12.5488C70.7136 12.5488 70.1762 12.6331 69.6494 12.8017C69.1437 12.9703 68.6906 13.2548 68.2902 13.6552C67.9109 14.0345 67.5948 14.5402 67.342 15.1724C67.1102 15.7835 66.9943 16.5316 66.9943 17.4167H63.2328C63.2117 16.2577 63.3908 15.204 63.7701 14.2557C64.1494 13.3075 64.6973 12.4962 65.4138 11.8218C66.1303 11.1475 66.9943 10.6207 68.0057 10.2414C69.0172 9.86207 70.1552 9.67241 71.4195 9.67241ZM89.6642 24.1494L95.8596 33H91.4343L87.42 27.2787L83.3424 33H79.2016L85.397 24.3707L79.5493 15.9943H83.9746L87.6096 21.2414L91.3711 15.9943H95.4803L89.6642 24.1494ZM100.764 33H97.0025V10.0833H100.764V33Z" fill="black"/>
</svg>
