<svg width="103" height="45" viewBox="0 0 103 45" fill="none" xmlns="http://www.w3.org/2000/svg">
<rect width="103" height="45" rx="22.5" fill="white"/>
<path fill-rule="evenodd" clip-rule="evenodd" d="M33 11C27.9333 11 24.7667 13.5091 23.5 18.5273C25.4 16.0182 27.6167 15.0773 30.15 15.7045C31.5954 16.0621 32.6284 17.1013 33.772 18.2506C35.6347 20.1233 37.7908 22.2909 42.5 22.2909C47.5667 22.2909 50.7333 19.7818 52 14.7636C50.1 17.2727 47.8833 18.2136 45.35 17.5864C43.9046 17.2288 42.8716 16.1896 41.728 15.0403C39.8653 13.1676 37.7092 11 33 11ZM23.5 22.2909C18.4333 22.2909 15.2667 24.8 14 29.8182C15.9 27.3091 18.1167 26.3682 20.65 26.9955C22.0954 27.3537 23.1284 28.3922 24.272 29.5415C26.1347 31.4142 28.2908 33.5818 33 33.5818C38.0667 33.5818 41.2333 31.0727 42.5 26.0545C40.6 28.5636 38.3833 29.5045 35.85 28.8773C34.4046 28.5197 33.3716 27.4805 32.228 26.3312C30.3653 24.4585 28.2092 22.2909 23.5 22.2909Z" fill="#38BDF8"/>
<path d="M67.8793 33H64.1178V10.0833H67.8793V33ZM82.1644 15.9943H85.9259V31.2931C85.9259 34.0747 85.2305 36.0766 83.8397 37.2989C82.47 38.5211 80.4681 39.1322 77.834 39.1322C76.9068 39.1322 76.0323 39.0374 75.2104 38.8477C74.3886 38.658 73.651 38.3525 72.9978 37.931C72.3656 37.5096 71.8388 36.9617 71.4173 36.2874C70.9959 35.6341 70.7114 34.8439 70.5639 33.9167H74.2938C74.4623 34.7174 74.8206 35.2864 75.3685 35.6236C75.9374 35.9818 76.7909 36.1609 77.9288 36.1609C78.7717 36.1609 79.4671 36.045 80.015 35.8132C80.5629 35.6025 80.9949 35.3075 81.311 34.9282C81.6271 34.5489 81.8484 34.1063 81.9748 33.6006C82.1012 33.1159 82.1644 32.5996 82.1644 32.0517V30.0603C81.6587 30.9033 80.9738 31.5565 80.1098 32.0201C79.2459 32.4837 78.2449 32.7155 77.107 32.7155C76.0744 32.7155 75.1051 32.5259 74.1989 32.1466C73.3139 31.7462 72.5447 31.1772 71.8915 30.4397C71.2382 29.681 70.7219 28.7749 70.3426 27.7213C69.9844 26.6676 69.8052 25.477 69.8052 24.1494C69.8052 22.8218 69.9844 21.6312 70.3426 20.5776C70.7219 19.5239 71.2382 18.6284 71.8915 17.8908C72.5447 17.1533 73.3139 16.5948 74.1989 16.2155C75.1051 15.8151 76.0744 15.6149 77.107 15.6149C78.2449 15.6149 79.2459 15.8467 80.1098 16.3103C80.9738 16.7739 81.6587 17.4272 82.1644 18.2701V15.9943ZM82.3225 24.1494C82.3225 23.2011 82.2066 22.3793 81.9748 21.6839C81.743 20.9885 81.4269 20.4195 81.0265 19.977C80.6472 19.5134 80.1836 19.1762 79.6357 18.9655C79.1089 18.7337 78.5399 18.6178 77.9288 18.6178C76.6012 18.6178 75.5687 19.113 74.8311 20.1034C74.0936 21.0939 73.7248 22.4425 73.7248 24.1494C73.7248 25.8985 74.0936 27.2682 74.8311 28.2586C75.5687 29.249 76.6012 29.7443 77.9288 29.7443C78.5399 29.7443 79.1089 29.6389 79.6357 29.4282C80.1836 29.1964 80.6472 28.8487 81.0265 28.3851C81.4269 27.9215 81.743 27.342 81.9748 26.6466C82.2066 25.9301 82.3225 25.0977 82.3225 24.1494Z" fill="black"/>
</svg>
