<svg width="123" height="45" viewBox="0 0 123 45" fill="none" xmlns="http://www.w3.org/2000/svg">
<rect width="123" height="45" rx="22.5" fill="white"/>
<path fill-rule="evenodd" clip-rule="evenodd" d="M33 11C27.9333 11 24.7667 13.5091 23.5 18.5273C25.4 16.0182 27.6167 15.0773 30.15 15.7045C31.5954 16.0621 32.6284 17.1013 33.772 18.2506C35.6347 20.1233 37.7908 22.2909 42.5 22.2909C47.5667 22.2909 50.7333 19.7818 52 14.7636C50.1 17.2727 47.8833 18.2136 45.35 17.5864C43.9046 17.2288 42.8716 16.1896 41.728 15.0403C39.8653 13.1676 37.7092 11 33 11ZM23.5 22.2909C18.4333 22.2909 15.2667 24.8 14 29.8182C15.9 27.3091 18.1167 26.3682 20.65 26.9955C22.0954 27.3537 23.1284 28.3922 24.272 29.5415C26.1347 31.4142 28.2908 33.5818 33 33.5818C38.0667 33.5818 41.2333 31.0727 42.5 26.0545C40.6 28.5636 38.3833 29.5045 35.85 28.8773C34.4046 28.5197 33.3716 27.4805 32.228 26.3312C30.3653 24.4585 28.2092 22.2909 23.5 22.2909Z" fill="#38BDF8"/>
<path d="M67.8793 33H64.1178V15.9943H67.8793V18.3649C68.364 17.4799 69.0172 16.8056 69.8391 16.342C70.682 15.8573 71.6724 15.6149 72.8103 15.6149C74.1379 15.6149 75.1916 15.8784 75.9713 16.4052C76.772 16.932 77.3726 17.6695 77.773 18.6178C78.5105 17.5431 79.3534 16.7739 80.3017 16.3103C81.25 15.8467 82.251 15.6149 83.3046 15.6149C84.3161 15.6149 85.1695 15.773 85.8649 16.0891C86.5814 16.4052 87.1609 16.8582 87.6035 17.4483C88.046 18.0383 88.3621 18.7443 88.5517 19.5661C88.7625 20.3879 88.8678 21.3046 88.8678 22.3161V33H85.1063V23.2328C85.1063 22.6638 85.0747 22.1054 85.0115 21.5575C84.9693 21.0096 84.8429 20.5249 84.6322 20.1034C84.4425 19.6609 84.1475 19.3132 83.7471 19.0603C83.3467 18.8075 82.7989 18.681 82.1034 18.681C81.408 18.681 80.818 18.818 80.3333 19.092C79.8697 19.3448 79.4904 19.7031 79.1954 20.1667C78.9004 20.6303 78.6897 21.1887 78.5632 21.842C78.4368 22.4952 78.3736 23.2011 78.3736 23.9598V33H74.6121V23.2328C74.6121 22.6638 74.5805 22.1054 74.5172 21.5575C74.4751 21.0096 74.3487 20.5249 74.1379 20.1034C73.9483 19.6609 73.6533 19.3132 73.2529 19.0603C72.8525 18.8075 72.3046 18.681 71.6092 18.681C70.9138 18.681 70.3238 18.818 69.8391 19.092C69.3755 19.3448 68.9962 19.7031 68.7011 20.1667C68.4061 20.6303 68.1954 21.1887 68.069 21.842C67.9425 22.4952 67.8793 23.2011 67.8793 23.9598V33ZM102.878 10.0833H106.639V33H102.878V30.7557C102.372 31.5987 101.687 32.2519 100.823 32.7155C99.9593 33.1791 98.9583 33.4109 97.8204 33.4109C96.7878 33.4109 95.8185 33.2107 94.9123 32.8103C94.0273 32.3889 93.2581 31.7883 92.6049 31.0086C91.9516 30.2289 91.4353 29.2912 91.056 28.1954C90.6978 27.0996 90.5187 25.8669 90.5187 24.4971C90.5187 23.1485 90.6978 21.9262 91.056 20.8305C91.4353 19.7347 91.9516 18.7969 92.6049 18.0172C93.2581 17.2375 94.0273 16.6475 94.9123 16.2471C95.8185 15.8257 96.7878 15.6149 97.8204 15.6149C98.9583 15.6149 99.9593 15.8467 100.823 16.3103C101.687 16.7739 102.372 17.4272 102.878 18.2701V10.0833ZM103.036 24.4971C103.036 23.5278 102.92 22.6743 102.688 21.9368C102.456 21.1992 102.14 20.5987 101.74 20.1351C101.361 19.6504 100.897 19.2921 100.349 19.0603C99.8223 18.8075 99.2533 18.681 98.6422 18.681C97.3146 18.681 96.2821 19.2079 95.5445 20.2615C94.807 21.2941 94.4382 22.7059 94.4382 24.4971C94.4382 26.3094 94.807 27.7423 95.5445 28.796C96.2821 29.8285 97.3146 30.3448 98.6422 30.3448C99.2533 30.3448 99.8223 30.2289 100.349 29.9971C100.897 29.7443 101.361 29.3755 101.74 28.8908C102.14 28.4061 102.456 27.8056 102.688 27.0891C102.92 26.3515 103.036 25.4875 103.036 24.4971Z" fill="black"/>
</svg>
