<svg width="121" height="45" viewBox="0 0 121 45" fill="none" xmlns="http://www.w3.org/2000/svg">
<rect width="121" height="45" rx="22.5" fill="white"/>
<path fill-rule="evenodd" clip-rule="evenodd" d="M33 11C27.9333 11 24.7667 13.5091 23.5 18.5273C25.4 16.0182 27.6167 15.0773 30.15 15.7045C31.5954 16.0621 32.6284 17.1013 33.772 18.2506C35.6347 20.1233 37.7908 22.2909 42.5 22.2909C47.5667 22.2909 50.7333 19.7818 52 14.7636C50.1 17.2727 47.8833 18.2136 45.35 17.5864C43.9046 17.2288 42.8716 16.1896 41.728 15.0403C39.8653 13.1676 37.7092 11 33 11ZM23.5 22.2909C18.4333 22.2909 15.2667 24.8 14 29.8182C15.9 27.3091 18.1167 26.3682 20.65 26.9955C22.0954 27.3537 23.1284 28.3922 24.272 29.5415C26.1347 31.4142 28.2908 33.5818 33 33.5818C38.0667 33.5818 41.2333 31.0727 42.5 26.0545C40.6 28.5636 38.3833 29.5045 35.85 28.8773C34.4046 28.5197 33.3716 27.4805 32.228 26.3312C30.3653 24.4585 28.2092 22.2909 23.5 22.2909Z" fill="#38BDF8"/>
<path d="M74.0115 20.7672C73.8218 19.9665 73.3793 19.387 72.6839 19.0287C71.9885 18.6705 71.1034 18.4914 70.0287 18.4914C69.1648 18.4914 68.4167 18.66 67.7845 18.9971C67.1734 19.3132 66.8678 19.7557 66.8678 20.3247C66.8678 21.3784 67.6897 22.0738 69.3333 22.4109L71.6408 22.8851C72.4837 23.0747 73.2739 23.296 74.0115 23.5488C74.7701 23.7807 75.4234 24.0862 75.9713 24.4655C76.5192 24.8448 76.9512 25.319 77.2672 25.8879C77.5833 26.4358 77.7414 27.1207 77.7414 27.9425C77.7414 28.8276 77.5412 29.6178 77.1408 30.3132C76.7615 30.9875 76.2347 31.5565 75.5603 32.0201C74.9071 32.4626 74.1379 32.7998 73.2529 33.0316C72.3889 33.2845 71.4617 33.4109 70.4713 33.4109C69.3755 33.4109 68.3745 33.2634 67.4684 32.9684C66.5833 32.6734 65.8142 32.273 65.1609 31.7672C64.5287 31.2615 64.0125 30.6609 63.6121 29.9655C63.2328 29.2701 63.001 28.5115 62.9167 27.6897H66.5833C66.7519 28.5958 67.1628 29.3017 67.8161 29.8075C68.4693 30.3132 69.3966 30.5661 70.5977 30.5661C71.6513 30.5661 72.4943 30.3764 73.1264 29.9971C73.7586 29.5967 74.0747 29.0594 74.0747 28.3851C74.0747 27.7107 73.7902 27.1944 73.2213 26.8362C72.6734 26.478 71.9464 26.204 71.0402 26.0144L68.4799 25.477C67.7423 25.3295 67.0575 25.1398 66.4253 24.908C65.7931 24.6552 65.2452 24.3391 64.7816 23.9598C64.3391 23.5594 63.9808 23.0852 63.7069 22.5374C63.454 21.9684 63.3276 21.2941 63.3276 20.5144C63.3276 19.7557 63.5067 19.0814 63.8649 18.4914C64.2443 17.8803 64.75 17.364 65.3822 16.9425C66.0144 16.5211 66.7519 16.1944 67.5948 15.9626C68.4377 15.7308 69.3333 15.6149 70.2816 15.6149C71.1667 15.6149 72.0096 15.7203 72.8103 15.931C73.6111 16.1418 74.3276 16.4684 74.9598 16.9109C75.613 17.3324 76.1609 17.8697 76.6034 18.523C77.0671 19.1552 77.3831 19.9033 77.5517 20.7672H74.0115ZM83.411 33H79.6495V15.9943H83.411V18.3649C83.8957 17.4799 84.549 16.8056 85.3708 16.342C86.2137 15.8573 87.2041 15.6149 88.3421 15.6149C89.6697 15.6149 90.7233 15.8784 91.503 16.4052C92.3038 16.932 92.9043 17.6695 93.3047 18.6178C94.0423 17.5431 94.8852 16.7739 95.8334 16.3103C96.7817 15.8467 97.7827 15.6149 98.8363 15.6149C99.8478 15.6149 100.701 15.773 101.397 16.0891C102.113 16.4052 102.693 16.8582 103.135 17.4483C103.578 18.0383 103.894 18.7443 104.083 19.5661C104.294 20.3879 104.4 21.3046 104.4 22.3161V33H100.638V23.2328C100.638 22.6638 100.606 22.1054 100.543 21.5575C100.501 21.0096 100.375 20.5249 100.164 20.1034C99.9743 19.6609 99.6792 19.3132 99.2789 19.0603C98.8785 18.8075 98.3306 18.681 97.6352 18.681C96.9398 18.681 96.3497 18.818 95.8651 19.092C95.4015 19.3448 95.0221 19.7031 94.7271 20.1667C94.4321 20.6303 94.2214 21.1887 94.0949 21.842C93.9685 22.4952 93.9053 23.2011 93.9053 23.9598V33H90.1438V23.2328C90.1438 22.6638 90.1122 22.1054 90.049 21.5575C90.0068 21.0096 89.8804 20.5249 89.6697 20.1034C89.48 19.6609 89.185 19.3132 88.7846 19.0603C88.3842 18.8075 87.8363 18.681 87.1409 18.681C86.4455 18.681 85.8555 18.818 85.3708 19.092C84.9072 19.3448 84.5279 19.7031 84.2329 20.1667C83.9379 20.6303 83.7271 21.1887 83.6007 21.842C83.4743 22.4952 83.411 23.2011 83.411 23.9598V33Z" fill="black"/>
</svg>
