<svg width="100" height="45" viewBox="0 0 100 45" fill="none" xmlns="http://www.w3.org/2000/svg">
<rect width="100" height="45" rx="22.5" fill="white"/>
<path fill-rule="evenodd" clip-rule="evenodd" d="M33 11C27.9333 11 24.7667 13.5091 23.5 18.5273C25.4 16.0182 27.6167 15.0773 30.15 15.7045C31.5954 16.0621 32.6284 17.1013 33.772 18.2506C35.6347 20.1233 37.7908 22.2909 42.5 22.2909C47.5667 22.2909 50.7333 19.7818 52 14.7636C50.1 17.2727 47.8833 18.2136 45.35 17.5864C43.9046 17.2288 42.8716 16.1896 41.728 15.0403C39.8653 13.1676 37.7092 11 33 11ZM23.5 22.2909C18.4333 22.2909 15.2667 24.8 14 29.8182C15.9 27.3091 18.1167 26.3682 20.65 26.9955C22.0954 27.3537 23.1284 28.3922 24.272 29.5415C26.1347 31.4142 28.2908 33.5818 33 33.5818C38.0667 33.5818 41.2333 31.0727 42.5 26.0545C40.6 28.5636 38.3833 29.5045 35.85 28.8773C34.4046 28.5197 33.3716 27.4805 32.228 26.3312C30.3653 24.4585 28.2092 22.2909 23.5 22.2909Z" fill="#38BDF8"/>
<path d="M72.5891 24.1494L78.7845 33H74.3592L70.3448 27.2787L66.2672 33H62.1264L68.3218 24.3707L62.4741 15.9943H66.8994L70.5345 21.2414L74.296 15.9943H78.4052L72.5891 24.1494ZM83.6888 33H79.9274V10.0833H83.6888V33Z" fill="black"/>
</svg>
