<svg width="109" height="45" viewBox="0 0 109 45" fill="none" xmlns="http://www.w3.org/2000/svg">
<rect width="109" height="45" rx="22.5" fill="white"/>
<path fill-rule="evenodd" clip-rule="evenodd" d="M33 11C27.9333 11 24.7667 13.5091 23.5 18.5273C25.4 16.0182 27.6167 15.0773 30.15 15.7045C31.5954 16.0621 32.6284 17.1013 33.772 18.2506C35.6347 20.1233 37.7908 22.2909 42.5 22.2909C47.5667 22.2909 50.7333 19.7818 52 14.7636C50.1 17.2727 47.8833 18.2136 45.35 17.5864C43.9046 17.2288 42.8716 16.1896 41.728 15.0403C39.8653 13.1676 37.7092 11 33 11ZM23.5 22.2909C18.4333 22.2909 15.2667 24.8 14 29.8182C15.9 27.3091 18.1167 26.3682 20.65 26.9955C22.0954 27.3537 23.1284 28.3922 24.272 29.5415C26.1347 31.4142 28.2908 33.5818 33 33.5818C38.0667 33.5818 41.2333 31.0727 42.5 26.0545C40.6 28.5636 38.3833 29.5045 35.85 28.8773C34.4046 28.5197 33.3716 27.4805 32.228 26.3312C30.3653 24.4585 28.2092 22.2909 23.5 22.2909Z" fill="#38BDF8"/>
<path d="M72.5891 24.1494L78.7845 33H74.3592L70.3448 27.2787L66.2672 33H62.1264L68.3218 24.3707L62.4741 15.9943H66.8994L70.5345 21.2414L74.296 15.9943H78.4052L72.5891 24.1494ZM89.5741 20.7672C89.3844 19.9665 88.9419 19.387 88.2465 19.0287C87.5511 18.6705 86.666 18.4914 85.5913 18.4914C84.7273 18.4914 83.9793 18.66 83.3471 18.9971C82.736 19.3132 82.4304 19.7557 82.4304 20.3247C82.4304 21.3784 83.2522 22.0738 84.8959 22.4109L87.2034 22.8851C88.0463 23.0747 88.8365 23.296 89.5741 23.5488C90.3327 23.7807 90.986 24.0862 91.5339 24.4655C92.0817 24.8448 92.5137 25.319 92.8298 25.8879C93.1459 26.4358 93.304 27.1207 93.304 27.9425C93.304 28.8276 93.1038 29.6178 92.7034 30.3132C92.3241 30.9875 91.7973 31.5565 91.1229 32.0201C90.4697 32.4626 89.7005 32.7998 88.8155 33.0316C87.9515 33.2845 87.0243 33.4109 86.0339 33.4109C84.9381 33.4109 83.9371 33.2634 83.031 32.9684C82.1459 32.6734 81.3768 32.273 80.7235 31.7672C80.0913 31.2615 79.575 30.6609 79.1747 29.9655C78.7953 29.2701 78.5635 28.5115 78.4793 27.6897H82.1459C82.3145 28.5958 82.7254 29.3017 83.3787 29.8075C84.0319 30.3132 84.9591 30.5661 86.1603 30.5661C87.2139 30.5661 88.0568 30.3764 88.689 29.9971C89.3212 29.5967 89.6373 29.0594 89.6373 28.3851C89.6373 27.7107 89.3528 27.1944 88.7839 26.8362C88.236 26.478 87.509 26.204 86.6028 26.0144L84.0425 25.477C83.3049 25.3295 82.6201 25.1398 81.9879 24.908C81.3557 24.6552 80.8078 24.3391 80.3442 23.9598C79.9017 23.5594 79.5434 23.0852 79.2695 22.5374C79.0166 21.9684 78.8902 21.2941 78.8902 20.5144C78.8902 19.7557 79.0693 19.0814 79.4275 18.4914C79.8068 17.8803 80.3126 17.364 80.9448 16.9425C81.577 16.5211 82.3145 16.1944 83.1574 15.9626C84.0003 15.7308 84.8959 15.6149 85.8442 15.6149C86.7293 15.6149 87.5722 15.7203 88.3729 15.931C89.1737 16.1418 89.8902 16.4684 90.5224 16.9109C91.1756 17.3324 91.7235 17.8697 92.166 18.523C92.6296 19.1552 92.9457 19.9033 93.1143 20.7672H89.5741Z" fill="black"/>
</svg>
